<?xml version="1.0" encoding="UTF-8" standalone="no"?>
<svg
   fill="#000000"
   viewBox="0 0 50 50"
   width="500px"
   height="500px"
   version="1.1"
   id="svg4"
   sodipodi:docname="favicon-source.svg"
   inkscape:export-filename="favicon.png"
   inkscape:export-xdpi="49.152"
   inkscape:export-ydpi="49.152"
   inkscape:version="1.2.1 (9c6d41e410, 2022-07-14, custom)"
   xmlns:inkscape="http://www.inkscape.org/namespaces/inkscape"
   xmlns:sodipodi="http://sodipodi.sourceforge.net/DTD/sodipodi-0.dtd"
   xmlns="http://www.w3.org/2000/svg"
   xmlns:svg="http://www.w3.org/2000/svg">
  <defs
     id="defs8" />
  <sodipodi:namedview
     id="namedview6"
     pagecolor="#ffffff"
     bordercolor="#666666"
     borderopacity="1.0"
     inkscape:showpageshadow="2"
     inkscape:pageopacity="0.0"
     inkscape:pagecheckerboard="0"
     inkscape:deskcolor="#d1d1d1"
     showgrid="false"
     inkscape:zoom="2.278"
     inkscape:cx="250.21949"
     inkscape:cy="250.87796"
     inkscape:window-width="2560"
     inkscape:window-height="1440"
     inkscape:window-x="0"
     inkscape:window-y="0"
     inkscape:window-maximized="1"
     inkscape:current-layer="svg4" />
  <path
     d="m 2.2308283,24.939617 c -1e-7,12.691406 10.3085937,23 22.9999997,23 9.832031,0 18.246094,-6.183593 21.53125,-14.875 0.187504,-0.51953 -0.07812,-1.089844 -0.593749,-1.28125 l -13.093751,-4.96875 c -0.253905,-0.101566 -0.535155,-0.09375 -0.781249,0.01953 -0.250001,0.109375 -0.441407,0.316406 -0.531251,0.574219 -1,2.644531 -3.527344,4.53125 -6.53125,4.53125 -3.878905,0 -6.999999,-3.121094 -7,-6.999999 0,-3.878907 3.121094,-7.000001 7,-7 3.003906,0 5.53125,1.886718 6.53125,4.531249 0.08985,0.257812 0.28125,0.464844 0.53125,0.574219 0.246094,0.113284 0.527345,0.121093 0.78125,0.01953 l 13.09375,-4.96875 c 0.515625,-0.191407 0.78125,-0.76172 0.59375,-1.281251 -3.285156,-8.6914056 -11.699219,-14.8749993 -21.531249,-14.875 -12.691407,3e-7 -23.0000009,10.308595 -23.0000007,23 z m 2.0000001,0 c -1e-7,-11.609375 9.3906246,-21.0000001 20.9999996,-20.9999997 8.621094,2e-7 15.917969,5.2695314 19.15625,12.6875007 l -11.218749,4.25 c -1.492188,-2.910157 -4.44922,-4.937501 -7.937501,-4.937501 -4.957031,0 -9,4.04297 -9,9 0,4.957031 4.042969,9 9,9 3.488281,0 6.445313,-2.027344 7.9375,-4.9375 l 11.218751,4.25 c -3.238282,7.417969 -10.535157,12.6875 -19.15625,12.6875 -11.609375,0 -21.0000008,-9.390625 -21.0000006,-21 z"
     id="path2"
     style="stroke:#000000;stroke-width:0.5;stroke-dasharray:none;stroke-opacity:1" />
</svg>
